<svg width="1600" height="1000" viewBox="0 0 1600 1000" fill="none" xmlns="http://www.w3.org/2000/svg">
  <rect width="1600" height="1000" fill="#F8FAFC"/>
  <rect x="0" y="0" width="1600" height="1000" fill="url(#bg)"/>
  <circle cx="1240" cy="130" r="220" fill="#F0B907" fill-opacity="0.22"/>
  <circle cx="270" cy="860" r="260" fill="#043868" fill-opacity="0.12"/>
  <rect x="146" y="205" width="1308" height="622" rx="34" fill="white" stroke="#C9D9EA" stroke-width="6"/>
  <rect x="208" y="278" width="474" height="474" rx="24" fill="#043868"/>
  <rect x="729" y="303" width="655" height="34" rx="17" fill="#D8E5F3"/>
  <rect x="729" y="365" width="560" height="28" rx="14" fill="#E7EFF8"/>
  <rect x="729" y="415" width="612" height="28" rx="14" fill="#E7EFF8"/>
  <rect x="729" y="465" width="518" height="28" rx="14" fill="#E7EFF8"/>
  <rect x="729" y="541" width="260" height="64" rx="16" fill="#043868"/>
  <rect x="1010" y="541" width="230" height="64" rx="16" fill="#F0B907"/>
  <rect x="729" y="637" width="655" height="68" rx="16" fill="#F8FAFC" stroke="#DCE6F1" stroke-width="4"/>
  <text x="252" y="505" fill="#FFFFFF" font-family="Poppins, sans-serif" font-size="56" font-weight="700">Prime</text>
  <text x="252" y="575" fill="#F0B907" font-family="Poppins, sans-serif" font-size="56" font-weight="700">Business Hub</text>
  <defs>
    <linearGradient id="bg" x1="161" y1="58" x2="1416" y2="946" gradientUnits="userSpaceOnUse">
      <stop stop-color="#FFFFFF"/>
      <stop offset="1" stop-color="#EFF5FC"/>
    </linearGradient>
  </defs>
</svg>
